<?xml version="1.0" encoding="UTF-8"?>
<!DOCTYPE svg PUBLIC "-//W3C//DTD SVG 1.1//EN" "http://www.w3.org/Graphics/SVG/1.1/DTD/svg11.dtd">
<svg xmlns="http://www.w3.org/2000/svg" version="1.1" width="456px" height="456px" style="shape-rendering:geometricPrecision; text-rendering:geometricPrecision; image-rendering:optimizeQuality; fill-rule:evenodd; clip-rule:evenodd" xmlns:xlink="http://www.w3.org/1999/xlink">
<g><path style="opacity:0.126" fill="#fefec2" d="M 137.5,54.5 C 199.905,54.7025 262.405,54.7025 325,54.5C 352.189,55.7048 369.189,69.3714 376,95.5C 376.963,133.533 376.629,171.533 375,209.5C 367.429,233.628 351.263,245.295 326.5,244.5C 326.334,252.507 326.5,260.507 327,268.5C 328.968,271.813 330.968,275.146 333,278.5C 353.179,276.258 367.845,284.258 377,302.5C 377.993,306.442 378.66,310.442 379,314.5C 379.667,328.5 379.667,342.5 379,356.5C 377.76,380.04 365.593,394.206 342.5,399C 265.833,399.667 189.167,399.667 112.5,399C 94.5301,394.69 82.6968,383.857 77,366.5C 75.0147,345.169 75.0147,323.835 77,302.5C 80.0686,297.088 83.5686,291.921 87.5,287C 99.7729,279.562 113.106,276.729 127.5,278.5C 127.867,267.096 128.2,255.762 128.5,244.5C 104.095,246.224 87.2615,235.89 78,213.5C 76.7404,207.744 75.9071,201.911 75.5,196C 76.7516,163.525 76.7516,131.025 75.5,98.5C 79.2556,75.4301 92.5889,61.2634 115.5,56C 123.011,55.8288 130.345,55.3288 137.5,54.5 Z"/></g>
<g><path style="opacity:0.933" fill="#e0f4ec" d="M 332.5,58.5 C 337.698,58.7308 342.698,59.8974 347.5,62C 348.381,62.7083 349.047,63.5416 349.5,64.5C 347.442,63.0669 345.108,62.4003 342.5,62.5C 339.283,60.8631 335.95,59.5298 332.5,58.5 Z"/></g>
<g><path style="opacity:1" fill="#30ada0" d="M 118.5,58.5 C 189.833,58.5 261.167,58.5 332.5,58.5C 335.95,59.5298 339.283,60.8631 342.5,62.5C 341.07,62.4208 339.736,62.7542 338.5,63.5C 336.745,61.636 334.579,60.636 332,60.5C 299.227,60.2105 266.393,60.5438 233.5,61.5C 222.848,60.8037 212.181,60.4704 201.5,60.5C 178.164,60.3334 154.831,60.5 131.5,61C 126.099,61.5094 120.766,62.3427 115.5,63.5C 115.167,62.8333 114.833,62.1667 114.5,61.5C 112.591,62.3482 110.591,62.6816 108.5,62.5C 111.632,60.5982 114.966,59.2649 118.5,58.5 Z"/></g>
<g><path style="opacity:1" fill="#e8f8ef" d="M 118.5,58.5 C 114.966,59.2649 111.632,60.5982 108.5,62.5C 105.833,63.5 103.167,64.5 100.5,65.5C 101.574,64.1154 102.907,62.9487 104.5,62C 108.97,59.9247 113.636,58.7581 118.5,58.5 Z"/></g>
<g><path style="opacity:1" fill="#01bd9f" d="M 201.5,60.5 C 193.035,61.9023 184.368,63.5689 175.5,65.5C 174.702,67.0777 174.202,68.7444 174,70.5C 173.444,68.4049 172.944,68.2382 172.5,70C 172.645,70.772 172.978,71.4387 173.5,72C 170.982,73.8798 170.315,76.2132 171.5,79C 170.101,79.5946 168.768,79.4279 167.5,78.5C 166.571,79.6888 166.238,81.0222 166.5,82.5C 165.5,82.5 164.5,82.5 163.5,82.5C 163.5,83.5 163.5,84.5 163.5,85.5C 161.857,85.4802 160.524,86.1468 159.5,87.5C 157.208,86.6906 155.041,86.3573 153,86.5C 152.626,87.4162 152.126,88.2496 151.5,89C 153.314,91.7207 153.981,94.5541 153.5,97.5C 151.922,98.2978 150.256,98.7978 148.5,99C 150.007,99.8373 150.507,101.004 150,102.5C 145.004,98.4289 144.171,99.4289 147.5,105.5C 147.192,106.308 146.692,106.975 146,107.5C 144.989,106.663 143.822,106.33 142.5,106.5C 142.5,104.5 142.5,102.5 142.5,100.5C 138.833,100.5 135.167,100.5 131.5,100.5C 131.5,102.833 131.5,105.167 131.5,107.5C 132.5,107.5 133.5,107.5 134.5,107.5C 134.756,109.792 134.423,111.959 133.5,114C 134,114.5 134.5,115 135,115.5C 138.077,108.132 139.577,108.132 139.5,115.5C 138.178,115.33 137.011,115.663 136,116.5C 135.256,119.871 135.756,123.037 137.5,126C 136.773,127.399 136.273,128.899 136,130.5C 135.667,129.833 135.333,129.167 135,128.5C 133.21,136.351 132.21,136.018 132,127.5C 129.94,130.923 130.106,134.256 132.5,137.5C 131.872,139.258 130.872,140.758 129.5,142C 130.167,143 130.833,144 131.5,145C 130.843,146.695 130.843,148.528 131.5,150.5C 130.953,153.826 130.453,157.16 130,160.5C 129.5,161 129,161.5 128.5,162C 129.253,170.938 129.253,179.938 128.5,189C 129.135,192.603 129.802,196.103 130.5,199.5C 130.5,212.833 130.5,226.167 130.5,239.5C 124.833,239.5 119.167,239.5 113.5,239.5C 98.8528,236.186 88.8528,227.519 83.5,213.5C 82.9357,208.969 83.1023,204.302 84,199.5C 85.922,195.06 87.2554,190.393 88,185.5C 88.3333,186.5 88.6667,187.5 89,188.5C 89.4994,182.843 89.6661,177.176 89.5,171.5C 90.5,171.5 91.5,171.5 92.5,171.5C 92.6658,166.821 92.4992,162.155 92,157.5C 88.4914,153.976 87.658,149.809 89.5,145C 88.8668,139.967 87.5335,135.133 85.5,130.5C 86.3202,128.889 87.6536,128.222 89.5,128.5C 90.992,125.413 90.6587,122.579 88.5,120C 89.5465,118.32 90.2132,116.486 90.5,114.5C 89.9341,109.841 89.4341,105.174 89,100.5C 88.8078,102.577 88.3078,104.577 87.5,106.5C 86.499,101.825 85.499,97.1583 84.5,92.5C 85.8834,89.9244 86.7167,90.2577 87,93.5C 87.414,93.0426 87.914,92.7093 88.5,92.5C 89.6514,87.8329 89.6514,83.1662 88.5,78.5C 91.7986,73.5341 95.7986,69.2008 100.5,65.5C 103.167,64.5 105.833,63.5 108.5,62.5C 110.591,62.6816 112.591,62.3482 114.5,61.5C 114.833,62.1667 115.167,62.8333 115.5,63.5C 120.766,62.3427 126.099,61.5094 131.5,61C 154.831,60.5 178.164,60.3334 201.5,60.5 Z"/></g>
<g><path style="opacity:1" fill="#03bd9f" d="M 342.5,62.5 C 345.108,62.4003 347.442,63.0669 349.5,64.5C 361.667,71.8165 369.167,82.4832 372,96.5C 372.167,114.667 372.333,132.833 372.5,151C 372.642,170.549 372.142,190.049 371,209.5C 367.215,221.105 360.048,229.772 349.5,235.5C 347.418,235.528 345.584,234.861 344,233.5C 341.054,236.543 339.888,235.876 340.5,231.5C 339.5,231.5 338.5,231.5 337.5,231.5C 337.5,229.167 337.5,226.833 337.5,224.5C 334.428,224.817 331.428,224.484 328.5,223.5C 328.833,222.833 329.167,222.167 329.5,221.5C 329.199,212.166 327.866,203 325.5,194C 326.43,180.951 326.096,167.784 324.5,154.5C 321.405,153.132 320.738,150.966 322.5,148C 321.481,142.87 320.648,137.703 320,132.5C 318.768,135.23 317.935,135.063 317.5,132C 317.594,129.046 318.094,128.879 319,131.5C 319.667,130.167 319.667,128.833 319,127.5C 315.906,125.283 313.406,122.616 311.5,119.5C 299.875,94.8799 281.209,77.8799 255.5,68.5C 253.974,66.87 251.974,66.0367 249.5,66C 250.973,65.2904 251.64,64.1238 251.5,62.5C 247.99,62.668 244.49,63.0013 241,63.5C 238.179,63.5922 235.679,62.9256 233.5,61.5C 266.393,60.5438 299.227,60.2105 332,60.5C 334.579,60.636 336.745,61.636 338.5,63.5C 339.736,62.7542 341.07,62.4208 342.5,62.5 Z"/></g>
<g><path style="opacity:1" fill="#f9fcfb" d="M 255.5,68.5 C 281.209,77.8799 299.875,94.8799 311.5,119.5C 316.193,129.275 318.527,139.609 318.5,150.5C 319.572,169.973 317.072,188.973 311,207.5C 297.834,239.844 274.001,259.011 239.5,265C 232.167,265.667 224.833,265.667 217.5,265C 213.163,263.671 208.829,262.671 204.5,262C 197.785,270.228 189.785,276.728 180.5,281.5C 179.609,282.11 178.609,282.443 177.5,282.5C 167.833,282.5 158.167,282.5 148.5,282.5C 137.688,279.524 132.855,272.524 134,261.5C 142.272,245.803 145.272,229.137 143,211.5C 139.666,199.665 137.166,187.665 135.5,175.5C 134.613,166.199 134.279,156.866 134.5,147.5C 139.295,110.537 158.962,85.0374 193.5,71C 209.09,65.7816 225.09,64.1149 241.5,66C 246.163,66.9459 250.83,67.7792 255.5,68.5 Z"/></g>
<g><path style="opacity:1" fill="#089f8d" d="M 302.5,149.5 C 302.719,150.675 302.386,151.675 301.5,152.5C 299.167,151 296.833,149.5 294.5,148C 292.888,147.28 291.388,147.446 290,148.5C 286.189,145.551 282.022,144.884 277.5,146.5C 276.692,146.192 276.025,145.692 275.5,145C 269.251,144.191 263.084,144.358 257,145.5C 255.955,144.627 255.122,143.627 254.5,142.5C 257.078,129.896 252.411,121.062 240.5,116C 225.025,110.101 211.858,113.267 201,125.5C 198.107,130.314 197.774,135.314 200,140.5C 200.816,141.823 201.983,142.489 203.5,142.5C 203.389,143.117 203.056,143.617 202.5,144C 192.991,144.17 183.658,144.67 174.5,145.5C 169.286,146.804 163.952,147.637 158.5,148C 155.86,148.896 153.693,150.396 152,152.5C 151.501,157.489 151.334,162.489 151.5,167.5C 146.901,129.886 161.901,103.052 196.5,87C 230.159,75.2627 259.659,81.7627 285,106.5C 295.624,118.87 301.458,133.204 302.5,149.5 Z"/></g>
<g><path style="opacity:1" fill="#1fbfa6" d="M 88.5,78.5 C 89.6514,83.1662 89.6514,87.8329 88.5,92.5C 87.914,92.7093 87.414,93.0426 87,93.5C 86.7167,90.2577 85.8834,89.9244 84.5,92.5C 85.499,97.1583 86.499,101.825 87.5,106.5C 88.3078,104.577 88.8078,102.577 89,100.5C 89.4341,105.174 89.9341,109.841 90.5,114.5C 90.2132,116.486 89.5465,118.32 88.5,120C 90.6587,122.579 90.992,125.413 89.5,128.5C 87.6536,128.222 86.3202,128.889 85.5,130.5C 87.5335,135.133 88.8668,139.967 89.5,145C 87.658,149.809 88.4914,153.976 92,157.5C 92.4992,162.155 92.6658,166.821 92.5,171.5C 91.5,171.5 90.5,171.5 89.5,171.5C 89.6661,177.176 89.4994,182.843 89,188.5C 88.6667,187.5 88.3333,186.5 88,185.5C 87.2554,190.393 85.922,195.06 84,199.5C 83.1023,204.302 82.9357,208.969 83.5,213.5C 82.4415,212.4 81.6082,211.066 81,209.5C 80.6667,206.5 80.3333,203.5 80,200.5C 79.3333,165.833 79.3333,131.167 80,96.5C 81.0484,89.5996 83.8817,83.5996 88.5,78.5 Z"/></g>
<g><path style="opacity:1" fill="#17b9a1" d="M 201.5,60.5 C 212.181,60.4704 222.848,60.8037 233.5,61.5C 235.679,62.9256 238.179,63.5922 241,63.5C 244.49,63.0013 247.99,62.668 251.5,62.5C 251.64,64.1238 250.973,65.2904 249.5,66C 251.974,66.0367 253.974,66.87 255.5,68.5C 250.83,67.7792 246.163,66.9459 241.5,66C 225.09,64.1149 209.09,65.7816 193.5,71C 158.962,85.0374 139.295,110.537 134.5,147.5C 133.113,149.877 132.279,152.543 132,155.5C 131.5,168.162 131.333,180.829 131.5,193.5C 130.539,195.265 130.205,197.265 130.5,199.5C 129.802,196.103 129.135,192.603 128.5,189C 129.253,179.938 129.253,170.938 128.5,162C 129,161.5 129.5,161 130,160.5C 130.453,157.16 130.953,153.826 131.5,150.5C 130.843,148.528 130.843,146.695 131.5,145C 130.833,144 130.167,143 129.5,142C 130.872,140.758 131.872,139.258 132.5,137.5C 130.106,134.256 129.94,130.923 132,127.5C 132.21,136.018 133.21,136.351 135,128.5C 135.333,129.167 135.667,129.833 136,130.5C 136.273,128.899 136.773,127.399 137.5,126C 135.756,123.037 135.256,119.871 136,116.5C 137.011,115.663 138.178,115.33 139.5,115.5C 139.577,108.132 138.077,108.132 135,115.5C 134.5,115 134,114.5 133.5,114C 134.423,111.959 134.756,109.792 134.5,107.5C 133.5,107.5 132.5,107.5 131.5,107.5C 131.5,105.167 131.5,102.833 131.5,100.5C 135.167,100.5 138.833,100.5 142.5,100.5C 142.5,102.5 142.5,104.5 142.5,106.5C 143.822,106.33 144.989,106.663 146,107.5C 146.692,106.975 147.192,106.308 147.5,105.5C 144.171,99.4289 145.004,98.4289 150,102.5C 150.507,101.004 150.007,99.8373 148.5,99C 150.256,98.7978 151.922,98.2978 153.5,97.5C 153.981,94.5541 153.314,91.7207 151.5,89C 152.126,88.2496 152.626,87.4162 153,86.5C 155.041,86.3573 157.208,86.6906 159.5,87.5C 160.524,86.1468 161.857,85.4802 163.5,85.5C 163.5,84.5 163.5,83.5 163.5,82.5C 164.5,82.5 165.5,82.5 166.5,82.5C 166.238,81.0222 166.571,79.6888 167.5,78.5C 168.768,79.4279 170.101,79.5946 171.5,79C 170.315,76.2132 170.982,73.8798 173.5,72C 172.978,71.4387 172.645,70.772 172.5,70C 172.944,68.2382 173.444,68.4049 174,70.5C 174.202,68.7444 174.702,67.0777 175.5,65.5C 184.368,63.5689 193.035,61.9023 201.5,60.5 Z"/></g>
<g><path style="opacity:1" fill="#f8fcfb" d="M 254.5,142.5 C 247.91,151.76 240.243,160.093 231.5,167.5C 221.226,166.694 218.726,161.694 224,152.5C 228.667,149.167 232.667,145.167 236,140.5C 237.71,134.531 235.543,130.697 229.5,129C 222.989,127.126 217.822,128.959 214,134.5C 213.52,141.148 210.02,143.815 203.5,142.5C 201.983,142.489 200.816,141.823 200,140.5C 197.774,135.314 198.107,130.314 201,125.5C 211.858,113.267 225.025,110.101 240.5,116C 252.411,121.062 257.078,129.896 254.5,142.5 Z"/></g>
<g><path style="opacity:1" fill="#0ca895" d="M 231.5,167.5 C 229.263,168.249 226.596,169.582 223.5,171.5C 228.657,173.859 233.991,175.692 239.5,177C 240.582,178.33 241.249,179.83 241.5,181.5C 235.18,175.961 227.847,174.128 219.5,176C 210.659,178.516 207.826,184.016 211,192.5C 220.652,202.705 230.652,203.039 241,193.5C 242.289,190.649 242.789,187.649 242.5,184.5C 244.452,187.717 244.452,190.884 242.5,194C 243.966,196.438 243.632,198.605 241.5,200.5C 240.092,201.243 238.759,202.077 237.5,203C 240.851,203.057 243.851,203.891 246.5,205.5C 243.167,205.167 239.833,204.833 236.5,204.5C 235.213,209.503 231.88,212.17 226.5,212.5C 221.358,212.195 217.691,209.695 215.5,205C 201.499,204.66 192.499,211.16 188.5,224.5C 188.39,226.374 189.056,227.874 190.5,229C 197.634,233.045 205.301,235.712 213.5,237C 231.649,240.042 248.649,237.042 264.5,228C 265.591,225.936 265.758,223.769 265,221.5C 260.273,214.939 254.44,209.606 247.5,205.5C 248.873,205.657 250.207,205.49 251.5,205C 248.833,204 248.833,203 251.5,202C 251.167,201.667 250.833,201.333 250.5,201C 252.134,200.506 253.801,200.34 255.5,200.5C 255.5,201.5 255.5,202.5 255.5,203.5C 256.978,203.238 258.311,203.571 259.5,204.5C 257.827,206.523 257.16,208.856 257.5,211.5C 259.912,211.244 261.579,212.244 262.5,214.5C 263.906,213.332 265.072,213.665 266,215.5C 270.492,213.997 271.992,215.497 270.5,220C 271.448,220.483 272.448,220.649 273.5,220.5C 273.51,207.232 274.177,207.232 275.5,220.5C 279.346,222.073 281.679,220.74 282.5,216.5C 283.167,217.5 283.833,218.5 284.5,219.5C 285.518,218.807 286.518,218.141 287.5,217.5C 280.574,228.915 270.907,237.415 258.5,243C 250.99,245.615 243.323,247.615 235.5,249C 222.76,248.983 210.094,248.317 197.5,247C 191.383,254.123 184.383,260.123 176.5,265C 171.344,266.962 166.011,267.795 160.5,267.5C 161.919,266.549 163.585,266.216 165.5,266.5C 165.313,264.436 164.813,262.436 164,260.5C 163.667,261.5 163.333,262.5 163,263.5C 162.885,258.609 162.052,253.943 160.5,249.5C 161.5,249.5 162.5,249.5 163.5,249.5C 163.337,251.857 163.503,254.19 164,256.5C 164.864,250.857 165.531,245.19 166,239.5C 166.333,240.5 166.667,241.5 167,242.5C 168.061,237.896 168.727,233.229 169,228.5C 170.699,227.594 172.533,227.261 174.5,227.5C 174.798,219.351 174.131,211.185 172.5,203C 172.917,200.502 173.251,198.002 173.5,195.5C 172.5,195.5 171.5,195.5 170.5,195.5C 170.662,193.473 170.495,191.473 170,189.5C 168.989,188.663 167.822,188.33 166.5,188.5C 165.539,182.862 165.539,177.195 166.5,171.5C 169.5,171.833 170.833,170.5 170.5,167.5C 171.5,167.5 172.5,167.5 173.5,167.5C 173.5,166.167 173.5,164.833 173.5,163.5C 172.5,163.5 171.5,163.5 170.5,163.5C 169.652,161.519 169.152,159.519 169,157.5C 170.356,156.62 171.856,156.286 173.5,156.5C 173.337,154.143 173.503,151.81 174,149.5C 174.561,150.022 175.228,150.355 176,150.5C 177.3,149.293 178.8,148.626 180.5,148.5C 180.5,147.5 180.5,146.5 180.5,145.5C 178.5,145.5 176.5,145.5 174.5,145.5C 183.658,144.67 192.991,144.17 202.5,144C 203.056,143.617 203.389,143.117 203.5,142.5C 210.02,143.815 213.52,141.148 214,134.5C 217.822,128.959 222.989,127.126 229.5,129C 235.543,130.697 237.71,134.531 236,140.5C 232.667,145.167 228.667,149.167 224,152.5C 218.726,161.694 221.226,166.694 231.5,167.5 Z"/></g>
<g><path style="opacity:1" fill="#09ad98" d="M 174.5,145.5 C 176.5,145.5 178.5,145.5 180.5,145.5C 180.5,146.5 180.5,147.5 180.5,148.5C 178.8,148.626 177.3,149.293 176,150.5C 175.228,150.355 174.561,150.022 174,149.5C 173.503,151.81 173.337,154.143 173.5,156.5C 171.856,156.286 170.356,156.62 169,157.5C 169.152,159.519 169.652,161.519 170.5,163.5C 171.5,163.5 172.5,163.5 173.5,163.5C 173.5,164.833 173.5,166.167 173.5,167.5C 172.5,167.5 171.5,167.5 170.5,167.5C 170.833,170.5 169.5,171.833 166.5,171.5C 165.539,177.195 165.539,182.862 166.5,188.5C 167.822,188.33 168.989,188.663 170,189.5C 170.495,191.473 170.662,193.473 170.5,195.5C 171.5,195.5 172.5,195.5 173.5,195.5C 173.251,198.002 172.917,200.502 172.5,203C 174.131,211.185 174.798,219.351 174.5,227.5C 172.533,227.261 170.699,227.594 169,228.5C 168.727,233.229 168.061,237.896 167,242.5C 166.667,241.5 166.333,240.5 166,239.5C 165.531,245.19 164.864,250.857 164,256.5C 163.503,254.19 163.337,251.857 163.5,249.5C 162.5,249.5 161.5,249.5 160.5,249.5C 162.052,253.943 162.885,258.609 163,263.5C 163.333,262.5 163.667,261.5 164,260.5C 164.813,262.436 165.313,264.436 165.5,266.5C 163.585,266.216 161.919,266.549 160.5,267.5C 156.675,267.406 153.675,265.906 151.5,263C 159.618,246.736 162.452,229.57 160,211.5C 156.223,197.007 153.39,182.34 151.5,167.5C 151.334,162.489 151.501,157.489 152,152.5C 153.693,150.396 155.86,148.896 158.5,148C 163.952,147.637 169.286,146.804 174.5,145.5 Z"/></g>
<g><path style="opacity:1" fill="#05aa95" d="M 254.5,142.5 C 255.122,143.627 255.955,144.627 257,145.5C 263.084,144.358 269.251,144.191 275.5,145C 276.025,145.692 276.692,146.192 277.5,146.5C 282.022,144.884 286.189,145.551 290,148.5C 291.388,147.446 292.888,147.28 294.5,148C 296.833,149.5 299.167,151 301.5,152.5C 302.386,151.675 302.719,150.675 302.5,149.5C 303.58,160.789 302.747,172.122 300,183.5C 298.332,190.172 296.665,196.838 295,203.5C 293.249,208.674 290.749,213.341 287.5,217.5C 286.518,218.141 285.518,218.807 284.5,219.5C 283.833,218.5 283.167,217.5 282.5,216.5C 281.679,220.74 279.346,222.073 275.5,220.5C 274.177,207.232 273.51,207.232 273.5,220.5C 272.448,220.649 271.448,220.483 270.5,220C 271.992,215.497 270.492,213.997 266,215.5C 265.072,213.665 263.906,213.332 262.5,214.5C 261.579,212.244 259.912,211.244 257.5,211.5C 257.16,208.856 257.827,206.523 259.5,204.5C 258.311,203.571 256.978,203.238 255.5,203.5C 255.5,202.5 255.5,201.5 255.5,200.5C 253.801,200.34 252.134,200.506 250.5,201C 250.833,201.333 251.167,201.667 251.5,202C 248.833,203 248.833,204 251.5,205C 250.207,205.49 248.873,205.657 247.5,205.5C 247.167,205.5 246.833,205.5 246.5,205.5C 243.851,203.891 240.851,203.057 237.5,203C 238.759,202.077 240.092,201.243 241.5,200.5C 243.632,198.605 243.966,196.438 242.5,194C 244.452,190.884 244.452,187.717 242.5,184.5C 241.89,183.609 241.557,182.609 241.5,181.5C 241.249,179.83 240.582,178.33 239.5,177C 233.991,175.692 228.657,173.859 223.5,171.5C 226.596,169.582 229.263,168.249 231.5,167.5C 240.243,160.093 247.91,151.76 254.5,142.5 Z"/></g>
<g><path style="opacity:1" fill="#256071" d="M 134.5,147.5 C 134.279,156.866 134.613,166.199 135.5,175.5C 134.778,175.082 134.278,174.416 134,173.5C 133.241,176.626 132.741,179.793 132.5,183C 132.682,201.565 132.682,220.399 132.5,239.5C 131.504,224.342 131.17,209.009 131.5,193.5C 131.333,180.829 131.5,168.162 132,155.5C 132.279,152.543 133.113,149.877 134.5,147.5 Z"/></g>
<g><path style="opacity:1" fill="#f9fdfc" d="M 241.5,181.5 C 241.557,182.609 241.89,183.609 242.5,184.5C 242.789,187.649 242.289,190.649 241,193.5C 230.652,203.039 220.652,202.705 211,192.5C 207.826,184.016 210.659,178.516 219.5,176C 227.847,174.128 235.18,175.961 241.5,181.5 Z"/></g>
<g><path style="opacity:0.933" fill="#edfaef" d="M 100.5,65.5 C 95.7986,69.2008 91.7986,73.5341 88.5,78.5C 83.8817,83.5996 81.0484,89.5996 80,96.5C 79.3333,131.167 79.3333,165.833 80,200.5C 80.3333,203.5 80.6667,206.5 81,209.5C 81.6082,211.066 82.4415,212.4 83.5,213.5C 88.8528,227.519 98.8528,236.186 113.5,239.5C 119.31,240.49 125.31,240.823 131.5,240.5C 131.5,254.5 131.5,268.5 131.5,282.5C 122.651,282.174 113.984,282.507 105.5,283.5C 98.2992,284.926 92.6325,288.592 88.5,294.5C 84.424,298.302 81.5906,302.969 80,308.5C 79.096,327.201 79.4293,345.868 81,364.5C 85.3173,379.317 94.8173,388.984 109.5,393.5C 113.881,395.211 118.547,395.877 123.5,395.5C 194.665,396.499 265.998,396.833 337.5,396.5C 263.001,397.666 188.334,397.832 113.5,397C 93.2669,392.437 81.7669,379.937 79,359.5C 78.3333,341.167 78.3333,322.833 79,304.5C 80.8871,302.974 81.8871,300.974 82,298.5C 85.4551,295.904 87.6218,292.57 88.5,288.5C 93.6992,286.168 99.0325,284.002 104.5,282C 113.16,281.5 121.827,281.334 130.5,281.5C 130.5,268.5 130.5,255.5 130.5,242.5C 104.982,244.176 87.8149,233.176 79,209.5C 78.3333,171.5 78.3333,133.5 79,95.5C 81.1859,83.6707 87.0192,74.1707 96.5,67C 97.745,66.2086 99.0783,65.7086 100.5,65.5 Z"/></g>
<g><path style="opacity:1" fill="#1e536a" d="M 322.5,164.5 C 322.5,189.833 322.5,215.167 322.5,240.5C 320.948,235.599 320.281,230.432 320.5,225C 322.374,214.468 321.707,204.135 318.5,194C 321.588,188.458 322.254,182.792 320.5,177C 321.14,172.732 321.807,168.565 322.5,164.5 Z"/></g>
<g><path style="opacity:1" fill="#3ebcb3" d="M 131.5,193.5 C 131.17,209.009 131.504,224.342 132.5,239.5C 132.5,240.167 132.167,240.5 131.5,240.5C 125.31,240.823 119.31,240.49 113.5,239.5C 119.167,239.5 124.833,239.5 130.5,239.5C 130.5,226.167 130.5,212.833 130.5,199.5C 130.205,197.265 130.539,195.265 131.5,193.5 Z"/></g>
<g><path style="opacity:1" fill="#fafdfc" d="M 246.5,205.5 C 246.833,205.5 247.167,205.5 247.5,205.5C 254.44,209.606 260.273,214.939 265,221.5C 265.758,223.769 265.591,225.936 264.5,228C 248.649,237.042 231.649,240.042 213.5,237C 205.301,235.712 197.634,233.045 190.5,229C 189.056,227.874 188.39,226.374 188.5,224.5C 192.499,211.16 201.499,204.66 215.5,205C 217.691,209.695 221.358,212.195 226.5,212.5C 231.88,212.17 235.213,209.503 236.5,204.5C 239.833,204.833 243.167,205.167 246.5,205.5 Z"/></g>
<g><path style="opacity:1" fill="#15b8a1" d="M 311.5,119.5 C 313.406,122.616 315.906,125.283 319,127.5C 319.667,128.833 319.667,130.167 319,131.5C 318.094,128.879 317.594,129.046 317.5,132C 317.935,135.063 318.768,135.23 320,132.5C 320.648,137.703 321.481,142.87 322.5,148C 320.738,150.966 321.405,153.132 324.5,154.5C 326.096,167.784 326.43,180.951 325.5,194C 327.866,203 329.199,212.166 329.5,221.5C 329.167,222.167 328.833,222.833 328.5,223.5C 331.428,224.484 334.428,224.817 337.5,224.5C 337.5,226.833 337.5,229.167 337.5,231.5C 338.5,231.5 339.5,231.5 340.5,231.5C 339.888,235.876 341.054,236.543 344,233.5C 345.584,234.861 347.418,235.528 349.5,235.5C 341.424,239.516 332.758,241.183 323.5,240.5C 323.167,240.5 322.833,240.5 322.5,240.5C 322.5,215.167 322.5,189.833 322.5,164.5C 322.947,159.189 321.613,154.522 318.5,150.5C 318.527,139.609 316.193,129.275 311.5,119.5 Z"/></g>
<g><path style="opacity:1" fill="#2f4b6b" d="M 318.5,150.5 C 321.613,154.522 322.947,159.189 322.5,164.5C 321.807,168.565 321.14,172.732 320.5,177C 322.254,182.792 321.588,188.458 318.5,194C 321.707,204.135 322.374,214.468 320.5,225C 320.281,230.432 320.948,235.599 322.5,240.5C 322.833,240.5 323.167,240.5 323.5,240.5C 323.334,250.839 323.5,261.172 324,271.5C 325.686,275.552 327.852,279.219 330.5,282.5C 280.331,282.832 230.331,282.499 180.5,281.5C 189.785,276.728 197.785,270.228 204.5,262C 208.829,262.671 213.163,263.671 217.5,265C 224.833,265.667 232.167,265.667 239.5,265C 274.001,259.011 297.834,239.844 311,207.5C 317.072,188.973 319.572,169.973 318.5,150.5 Z"/></g>
<g><path style="opacity:1" fill="#2b556e" d="M 135.5,175.5 C 137.166,187.665 139.666,199.665 143,211.5C 145.272,229.137 142.272,245.803 134,261.5C 132.855,272.524 137.688,279.524 148.5,282.5C 142.833,283.833 137.167,283.833 131.5,282.5C 131.5,268.5 131.5,254.5 131.5,240.5C 132.167,240.5 132.5,240.167 132.5,239.5C 132.682,220.399 132.682,201.565 132.5,183C 132.741,179.793 133.241,176.626 134,173.5C 134.278,174.416 134.778,175.082 135.5,175.5 Z"/></g>
<g><path style="opacity:0.933" fill="#e7f6ea" d="M 349.5,64.5 C 355.674,66.4341 360.674,70.1007 364.5,75.5C 369.103,81.7941 372.27,88.7941 374,96.5C 374.948,133.526 374.615,170.526 373,207.5C 365.68,231.308 349.513,242.975 324.5,242.5C 324.334,251.506 324.5,260.506 325,269.5C 326.682,273.852 329.182,277.686 332.5,281C 338.833,281.333 345.167,281.667 351.5,282C 355.72,282.935 359.053,285.101 361.5,288.5C 358.553,287.027 355.553,285.527 352.5,284C 350.527,283.505 348.527,283.338 346.5,283.5C 341.695,282.513 336.695,282.179 331.5,282.5C 331.167,282.5 330.833,282.5 330.5,282.5C 327.852,279.219 325.686,275.552 324,271.5C 323.5,261.172 323.334,250.839 323.5,240.5C 332.758,241.183 341.424,239.516 349.5,235.5C 360.048,229.772 367.215,221.105 371,209.5C 372.142,190.049 372.642,170.549 372.5,151C 372.333,132.833 372.167,114.667 372,96.5C 369.167,82.4832 361.667,71.8165 349.5,64.5 Z"/></g>
<g><path style="opacity:1" fill="#136371" d="M 180.5,281.5 C 230.331,282.499 280.331,282.832 330.5,282.5C 330.833,282.5 331.167,282.5 331.5,282.5C 280.167,283.833 228.833,283.833 177.5,282.5C 178.609,282.443 179.609,282.11 180.5,281.5 Z"/></g>
<g><path style="opacity:1" fill="#1bab9c" d="M 105.5,283.5 C 113.984,282.507 122.651,282.174 131.5,282.5C 137.167,283.833 142.833,283.833 148.5,282.5C 158.167,282.5 167.833,282.5 177.5,282.5C 228.833,283.833 280.167,283.833 331.5,282.5C 336.695,282.179 341.695,282.513 346.5,283.5C 342.78,283.564 339.114,284.064 335.5,285C 336.308,285.308 336.975,285.808 337.5,286.5C 334.264,287.941 331.264,287.608 328.5,285.5C 327.618,286.76 326.618,287.926 325.5,289C 321.007,289.266 316.674,290.099 312.5,291.5C 312.5,290.5 312.5,289.5 312.5,288.5C 297.192,289.602 281.859,289.769 266.5,289C 240.307,287.841 213.973,287.008 187.5,286.5C 187.709,285.914 188.043,285.414 188.5,285C 186,284.833 183.5,284.667 181,284.5C 171.043,287.474 160.876,288.14 150.5,286.5C 149.975,285.808 149.308,285.308 148.5,285C 144.016,284.736 139.682,284.57 135.5,284.5C 134.833,284.833 134.167,285.167 133.5,285.5C 134.729,286.281 136.062,286.781 137.5,287C 130.905,288.197 124.238,288.364 117.5,287.5C 117.5,286.5 117.5,285.5 117.5,284.5C 117.163,283.12 113.163,282.787 105.5,283.5 Z"/></g>
<g><path style="opacity:1" fill="#07af97" d="M 105.5,283.5 C 113.163,282.787 117.163,283.12 117.5,284.5C 117.5,285.5 117.5,286.5 117.5,287.5C 124.238,288.364 130.905,288.197 137.5,287C 136.062,286.781 134.729,286.281 133.5,285.5C 134.167,285.167 134.833,284.833 135.5,284.5C 139.682,284.57 144.016,284.736 148.5,285C 149.308,285.308 149.975,285.808 150.5,286.5C 160.876,288.14 171.043,287.474 181,284.5C 183.5,284.667 186,284.833 188.5,285C 188.043,285.414 187.709,285.914 187.5,286.5C 213.973,287.008 240.307,287.841 266.5,289C 281.859,289.769 297.192,289.602 312.5,288.5C 312.5,289.5 312.5,290.5 312.5,291.5C 316.674,290.099 321.007,289.266 325.5,289C 326.618,287.926 327.618,286.76 328.5,285.5C 331.264,287.608 334.264,287.941 337.5,286.5C 336.975,285.808 336.308,285.308 335.5,285C 339.114,284.064 342.78,283.564 346.5,283.5C 348.527,283.338 350.527,283.505 352.5,284C 355.553,285.527 358.553,287.027 361.5,288.5C 366.993,293.164 371.16,298.831 374,305.5C 374.494,307.134 374.66,308.801 374.5,310.5C 373.968,316.152 373.635,321.819 373.5,327.5C 372.167,327.5 370.833,327.5 369.5,327.5C 369.353,322.786 369.686,318.119 370.5,313.5C 363.08,313.203 355.746,313.536 348.5,314.5C 346.053,311.101 342.72,308.935 338.5,308C 333.511,307.501 328.511,307.334 323.5,307.5C 321.369,306.686 319.036,306.186 316.5,306C 305.172,305.5 293.838,305.333 282.5,305.5C 279.563,303.775 277.397,304.441 276,307.5C 275.264,322.899 275.764,338.232 277.5,353.5C 277.167,353.833 276.833,354.167 276.5,354.5C 271.346,338.533 264.846,323.2 257,308.5C 253.306,303.017 249.139,302.35 244.5,306.5C 226.201,305.868 208.035,305.868 190,306.5C 185.455,306.652 181.122,305.986 177,304.5C 174.813,304.788 172.646,305.122 170.5,305.5C 170.5,304.5 170.5,303.5 170.5,302.5C 167.833,302.5 165.167,302.5 162.5,302.5C 162.5,303.5 162.5,304.5 162.5,305.5C 161.833,305.5 161.5,305.833 161.5,306.5C 151.723,305.241 141.723,305.241 131.5,306.5C 131.5,304.167 131.5,301.833 131.5,299.5C 126.5,299.5 121.5,299.5 116.5,299.5C 116.5,300.5 116.5,301.5 116.5,302.5C 114.167,302.5 111.833,302.5 109.5,302.5C 109.5,303.5 109.5,304.5 109.5,305.5C 108.5,305.5 107.5,305.5 106.5,305.5C 106.663,307.857 106.497,310.19 106,312.5C 104.644,313.38 103.144,313.714 101.5,313.5C 99.8815,318.947 99.0482,324.613 99,330.5C 97.6667,331.833 96.3333,331.833 95,330.5C 93.2264,332.513 93.3931,334.513 95.5,336.5C 95.1833,341.758 95.1833,347.092 95.5,352.5C 92.2604,350.866 90.0937,351.866 89,355.5C 88.5017,352.183 88.335,348.85 88.5,345.5C 87.1667,345.5 85.8333,345.5 84.5,345.5C 84.5,346.5 84.5,347.5 84.5,348.5C 83.5,348.5 82.5,348.5 81.5,348.5C 81.2011,346.396 81.5344,344.396 82.5,342.5C 83.4255,341.359 84.2588,341.359 85,342.5C 85.4974,339.854 85.6641,337.187 85.5,334.5C 84.5,334.5 83.5,334.5 82.5,334.5C 82.5,332.167 82.5,329.833 82.5,327.5C 83.8333,327.5 85.1667,327.5 86.5,327.5C 86.3298,324.324 84.6631,322.324 81.5,321.5C 81.0688,320.707 80.7355,319.873 80.5,319C 84.1892,314.975 86.1892,310.142 86.5,304.5C 87.1667,305.167 87.8333,305.833 88.5,306.5C 88.8333,306.167 89.1667,305.833 89.5,305.5C 88.1228,303.711 87.1228,301.711 86.5,299.5C 88.0049,298.158 88.6715,296.492 88.5,294.5C 92.6325,288.592 98.2992,284.926 105.5,283.5 Z"/></g>
<g><path style="opacity:1" fill="#fafdfd" d="M 282.5,305.5 C 284.887,309.494 286.387,313.828 287,318.5C 287.667,331.167 287.667,343.833 287,356.5C 283.676,369.911 278.01,370.911 270,359.5C 262.627,345.047 256.627,330.047 252,314.5C 253.385,329.103 253.718,343.77 253,358.5C 252.412,365.819 249.079,367.819 243,364.5C 239.186,349.011 238.519,333.344 241,317.5C 241.608,313.627 242.774,309.96 244.5,306.5C 249.139,302.35 253.306,303.017 257,308.5C 264.846,323.2 271.346,338.533 276.5,354.5C 276.833,354.167 277.167,353.833 277.5,353.5C 275.764,338.232 275.264,322.899 276,307.5C 277.397,304.441 279.563,303.775 282.5,305.5 Z"/></g>
<g><path style="opacity:1" fill="#0cae98" d="M 88.5,294.5 C 88.6715,296.492 88.0049,298.158 86.5,299.5C 87.1228,301.711 88.1228,303.711 89.5,305.5C 89.1667,305.833 88.8333,306.167 88.5,306.5C 87.8333,305.833 87.1667,305.167 86.5,304.5C 86.1892,310.142 84.1892,314.975 80.5,319C 80.7355,319.873 81.0688,320.707 81.5,321.5C 84.6631,322.324 86.3298,324.324 86.5,327.5C 85.1667,327.5 83.8333,327.5 82.5,327.5C 82.5,329.833 82.5,332.167 82.5,334.5C 83.5,334.5 84.5,334.5 85.5,334.5C 85.6641,337.187 85.4974,339.854 85,342.5C 84.2588,341.359 83.4255,341.359 82.5,342.5C 81.5344,344.396 81.2011,346.396 81.5,348.5C 82.5,348.5 83.5,348.5 84.5,348.5C 84.5,347.5 84.5,346.5 84.5,345.5C 85.8333,345.5 87.1667,345.5 88.5,345.5C 88.335,348.85 88.5017,352.183 89,355.5C 90.0937,351.866 92.2604,350.866 95.5,352.5C 95.1833,347.092 95.1833,341.758 95.5,336.5C 93.3931,334.513 93.2264,332.513 95,330.5C 96.3333,331.833 97.6667,331.833 99,330.5C 99.0482,324.613 99.8815,318.947 101.5,313.5C 103.144,313.714 104.644,313.38 106,312.5C 106.497,310.19 106.663,307.857 106.5,305.5C 107.5,305.5 108.5,305.5 109.5,305.5C 109.5,304.5 109.5,303.5 109.5,302.5C 111.833,302.5 114.167,302.5 116.5,302.5C 116.5,301.5 116.5,300.5 116.5,299.5C 121.5,299.5 126.5,299.5 131.5,299.5C 131.5,301.833 131.5,304.167 131.5,306.5C 141.723,305.241 151.723,305.241 161.5,306.5C 161.013,307.473 160.513,308.473 160,309.5C 159.416,324.866 159.416,340.199 160,355.5C 157.39,344.393 153.557,333.727 148.5,323.5C 144.96,319.554 141.46,319.554 138,323.5C 133.537,332.056 130.37,341.056 128.5,350.5C 127.566,349.432 127.232,348.099 127.5,346.5C 128.233,335.505 128.4,324.505 128,313.5C 126.789,308.29 123.623,306.456 118.5,308C 116.741,309.008 115.574,310.508 115,312.5C 113.381,330.88 115.215,348.88 120.5,366.5C 124.564,369.297 128.398,368.964 132,365.5C 137.108,355.679 140.942,345.346 143.5,334.5C 145.924,345.68 149.758,356.347 155,366.5C 159,371.833 163,371.833 167,366.5C 172.272,348.865 174.272,330.865 173,312.5C 171.865,306.201 168.365,303.868 162.5,305.5C 162.5,304.5 162.5,303.5 162.5,302.5C 165.167,302.5 167.833,302.5 170.5,302.5C 170.5,303.5 170.5,304.5 170.5,305.5C 172.646,305.122 174.813,304.788 177,304.5C 181.122,305.986 185.455,306.652 190,306.5C 208.035,305.868 226.201,305.868 244.5,306.5C 242.774,309.96 241.608,313.627 241,317.5C 238.519,333.344 239.186,349.011 243,364.5C 249.079,367.819 252.412,365.819 253,358.5C 253.718,343.77 253.385,329.103 252,314.5C 256.627,330.047 262.627,345.047 270,359.5C 278.01,370.911 283.676,369.911 287,356.5C 287.667,343.833 287.667,331.167 287,318.5C 286.387,313.828 284.887,309.494 282.5,305.5C 293.838,305.333 305.172,305.5 316.5,306C 319.036,306.186 321.369,306.686 323.5,307.5C 308.992,310.175 300.825,318.842 299,333.5C 296.884,361.384 309.718,373.55 337.5,370C 340.785,369.241 343.785,367.908 346.5,366C 349.47,362.556 349.137,359.556 345.5,357C 339.496,356.591 333.496,356.757 327.5,357.5C 318.032,358.199 312.532,353.866 311,344.5C 308.367,334.364 311.534,326.864 320.5,322C 329.307,321.713 337.973,322.38 346.5,324C 349.58,321.355 350.247,318.188 348.5,314.5C 355.746,313.536 363.08,313.203 370.5,313.5C 369.686,318.119 369.353,322.786 369.5,327.5C 370.833,327.5 372.167,327.5 373.5,327.5C 373.635,321.819 373.968,316.152 374.5,310.5C 375.662,326.661 375.828,342.995 375,359.5C 372.02,379.647 360.52,391.313 340.5,394.5C 322.946,393.207 305.279,392.541 287.5,392.5C 270.22,392.521 253.053,393.187 236,394.5C 234.5,394 233,393.5 231.5,393C 213.5,392.833 195.5,392.667 177.5,392.5C 158.887,392.519 140.387,393.186 122,394.5C 121.055,394.095 120.388,393.428 120,392.5C 116.658,392.627 113.158,392.961 109.5,393.5C 94.8173,388.984 85.3173,379.317 81,364.5C 79.4293,345.868 79.096,327.201 80,308.5C 81.5906,302.969 84.424,298.302 88.5,294.5 Z"/></g>
<g><path style="opacity:1" fill="#fbfdfd" d="M 127.5,346.5 C 126.362,349.304 126.195,352.304 127,355.5C 127.608,353.846 128.108,352.179 128.5,350.5C 130.37,341.056 133.537,332.056 138,323.5C 141.46,319.554 144.96,319.554 148.5,323.5C 153.557,333.727 157.39,344.393 160,355.5C 159.416,340.199 159.416,324.866 160,309.5C 160.513,308.473 161.013,307.473 161.5,306.5C 161.5,305.833 161.833,305.5 162.5,305.5C 168.365,303.868 171.865,306.201 173,312.5C 174.272,330.865 172.272,348.865 167,366.5C 163,371.833 159,371.833 155,366.5C 149.758,356.347 145.924,345.68 143.5,334.5C 140.942,345.346 137.108,355.679 132,365.5C 128.398,368.964 124.564,369.297 120.5,366.5C 115.215,348.88 113.381,330.88 115,312.5C 115.574,310.508 116.741,309.008 118.5,308C 123.623,306.456 126.789,308.29 128,313.5C 128.4,324.505 128.233,335.505 127.5,346.5 Z"/></g>
<g><path style="opacity:1" fill="#fbfdfd" d="M 323.5,307.5 C 328.511,307.334 333.511,307.501 338.5,308C 342.72,308.935 346.053,311.101 348.5,314.5C 350.247,318.188 349.58,321.355 346.5,324C 337.973,322.38 329.307,321.713 320.5,322C 311.534,326.864 308.367,334.364 311,344.5C 312.532,353.866 318.032,358.199 327.5,357.5C 333.496,356.757 339.496,356.591 345.5,357C 349.137,359.556 349.47,362.556 346.5,366C 343.785,367.908 340.785,369.241 337.5,370C 309.718,373.55 296.884,361.384 299,333.5C 300.825,318.842 308.992,310.175 323.5,307.5 Z"/></g>
<g><path style="opacity:1" fill="#fafdfd" d="M 205.5,309.5 C 211.386,308.343 216.219,310.01 220,314.5C 228.382,330.842 232.048,348.175 231,366.5C 229.55,371.308 226.384,373.141 221.5,372C 218.224,367.4 216.891,362.233 217.5,356.5C 210.167,356.5 202.833,356.5 195.5,356.5C 194.934,362.099 193.434,367.432 191,372.5C 187.111,375.611 184.111,374.944 182,370.5C 182.072,347.107 189.906,326.774 205.5,309.5 Z"/></g>
<g><path style="opacity:1" fill="#18b09a" d="M 206.5,319.5 C 209.652,318.959 212.152,319.959 214,322.5C 217.64,329.235 218.307,336.235 216,343.5C 209.596,347.825 203.596,347.491 198,342.5C 197.571,333.621 200.404,325.955 206.5,319.5 Z"/></g>
<g><path style="opacity:1" fill="#91dbd2" d="M 127.5,346.5 C 127.232,348.099 127.566,349.432 128.5,350.5C 128.108,352.179 127.608,353.846 127,355.5C 126.195,352.304 126.362,349.304 127.5,346.5 Z"/></g>
<g><path style="opacity:0.933" fill="#defaf3" d="M 361.5,288.5 C 368.992,293.116 373.825,299.783 376,308.5C 376.667,326.833 376.667,345.167 376,363.5C 370.956,383.718 358.123,394.718 337.5,396.5C 265.998,396.833 194.665,396.499 123.5,395.5C 196.002,395.833 268.335,395.499 340.5,394.5C 360.52,391.313 372.02,379.647 375,359.5C 375.828,342.995 375.662,326.661 374.5,310.5C 374.66,308.801 374.494,307.134 374,305.5C 371.16,298.831 366.993,293.164 361.5,288.5 Z"/></g>
<g><path style="opacity:1" fill="#26ad9e" d="M 340.5,394.5 C 268.335,395.499 196.002,395.833 123.5,395.5C 118.547,395.877 113.881,395.211 109.5,393.5C 113.158,392.961 116.658,392.627 120,392.5C 120.388,393.428 121.055,394.095 122,394.5C 140.387,393.186 158.887,392.519 177.5,392.5C 195.5,392.667 213.5,392.833 231.5,393C 233,393.5 234.5,394 236,394.5C 253.053,393.187 270.22,392.521 287.5,392.5C 305.279,392.541 322.946,393.207 340.5,394.5 Z"/></g>
</svg>
